<svg xmlns="http://www.w3.org/2000/svg" xmlns:xlink="http://www.w3.org/1999/xlink" width="500" zoomAndPan="magnify" viewBox="0 0 375 374.999991" height="500" preserveAspectRatio="xMidYMid meet" version="1.0"><defs><clipPath id="ae2c15621b"><path d="M 28.027344 23 L 346.777344 23 L 346.777344 151 L 28.027344 151 Z M 28.027344 23 " clip-rule="nonzero"/></clipPath></defs><path fill="#ffffff" d="M 119.871094 68.902344 C 118.9375 67.824219 117.664062 66.871094 116.058594 66.050781 C 114.488281 65.253906 112.457031 64.851562 110.015625 64.851562 C 106.652344 64.851562 103.820312 65.898438 101.347656 68.046875 C 100.367188 68.984375 99.515625 70.097656 98.789062 71.339844 C 98.371094 72.046875 98.007812 72.804688 97.699219 73.601562 C 98.742188 73.566406 99.941406 73.53125 101.300781 73.503906 L 108.609375 73.378906 C 110.5 73.378906 112.355469 73.363281 114.167969 73.339844 C 117.609375 73.300781 120.378906 73.292969 122.191406 73.363281 C 122.101562 73.03125 121.992188 72.664062 121.847656 72.238281 C 121.460938 71.121094 120.804688 69.996094 119.871094 68.902344 " fill-opacity="1" fill-rule="nonzero"/><path fill="#ffffff" d="M 72.96875 68.578125 C 74.199219 67.96875 75.289062 67.292969 76.210938 66.5625 C 77.914062 65.066406 78.769531 63.195312 78.769531 60.882812 C 78.769531 59.277344 78.417969 57.804688 77.714844 56.507812 C 77 55.160156 76.023438 54.039062 74.726562 53.078125 C 73.417969 52.105469 71.828125 51.324219 70.011719 50.757812 C 66.566406 49.691406 62.433594 49.628906 58.289062 50.53125 C 56.609375 50.886719 54.863281 51.417969 53.070312 52.121094 C 53.171875 53.78125 53.214844 55.542969 53.214844 57.394531 C 53.371094 62.066406 53.558594 66.128906 53.742188 69.542969 C 54.488281 69.832031 55.269531 70.066406 56.113281 70.246094 C 57.269531 70.492188 58.589844 70.660156 60.046875 70.738281 C 63.695312 70.789062 66.773438 70.542969 69.15625 70.046875 C 70.410156 69.707031 71.714844 69.207031 72.96875 68.578125 " fill-opacity="1" fill-rule="nonzero"/><path fill="#ffffff" d="M 201.921875 68.902344 C 200.984375 67.824219 199.699219 66.863281 198.097656 66.050781 C 196.535156 65.253906 194.503906 64.851562 192.054688 64.851562 C 188.699219 64.851562 185.878906 65.898438 183.394531 68.046875 C 182.417969 68.992188 181.546875 70.101562 180.835938 71.339844 C 180.417969 72.046875 180.058594 72.804688 179.746094 73.601562 C 180.78125 73.566406 181.976562 73.53125 183.339844 73.503906 L 190.644531 73.378906 C 192.546875 73.378906 194.40625 73.363281 196.21875 73.339844 C 199.613281 73.292969 202.425781 73.277344 204.226562 73.363281 C 204.148438 73.03125 204.039062 72.65625 203.894531 72.238281 C 203.511719 71.121094 202.855469 69.996094 201.921875 68.902344 " fill-opacity="1" fill-rule="nonzero"/><path fill="#ffffff" d="M 321.542969 68.902344 C 320.605469 67.824219 319.335938 66.871094 317.730469 66.050781 C 316.160156 65.253906 314.125 64.851562 311.6875 64.851562 C 308.324219 64.851562 305.492188 65.898438 303.015625 68.046875 C 302.039062 68.984375 301.183594 70.097656 300.457031 71.339844 C 300.042969 72.046875 299.679688 72.804688 299.371094 73.601562 C 300.414062 73.566406 301.613281 73.53125 302.972656 73.503906 L 310.28125 73.378906 C 312.183594 73.378906 314.027344 73.363281 315.839844 73.339844 C 319.253906 73.292969 322.035156 73.277344 323.859375 73.363281 C 323.769531 73.03125 323.664062 72.664062 323.519531 72.238281 C 323.132812 71.121094 322.476562 69.996094 321.542969 68.902344 " fill-opacity="1" fill-rule="nonzero"/><g clip-path="url(#ae2c15621b)"><path fill="#ffffff" d="M 330.542969 78.640625 C 330.066406 79.464844 328.824219 80.769531 326.355469 80.523438 C 322.332031 80.527344 317.574219 80.609375 312.191406 80.734375 L 304.558594 80.996094 C 302.578125 81.070312 300.601562 81.183594 298.644531 81.335938 C 298.746094 82.574219 298.976562 83.785156 299.324219 84.9375 C 299.800781 86.441406 300.535156 87.730469 301.589844 88.882812 C 302.65625 90.039062 303.996094 90.917969 305.6875 91.585938 C 307.402344 92.265625 309.511719 92.613281 311.941406 92.613281 C 312.949219 92.613281 313.984375 92.453125 315.027344 92.140625 C 316.148438 91.816406 317.3125 91.355469 318.511719 90.769531 C 320.628906 89.609375 322.246094 87.933594 323.398438 85.671875 C 324.179688 84.589844 325.089844 84.121094 326.15625 84.082031 C 327.179688 84.121094 327.960938 84.296875 328.714844 84.828125 C 329.503906 85.382812 330.046875 86.195312 330.285156 87.199219 C 330.570312 88.214844 330.339844 89.359375 329.582031 90.550781 C 329.550781 90.605469 329.503906 90.664062 329.460938 90.714844 C 328.671875 92.132812 327.695312 93.394531 326.476562 94.546875 C 325.222656 95.734375 323.792969 96.78125 322.246094 97.648438 C 320.707031 98.515625 319.035156 99.191406 317.277344 99.660156 C 315.542969 100.125 313.742188 100.363281 311.941406 100.363281 C 308.324219 100.363281 305.136719 99.730469 302.46875 98.488281 C 299.789062 97.234375 297.535156 95.574219 295.777344 93.554688 C 294.007812 91.53125 292.703125 89.1875 291.878906 86.601562 C 291.0625 84.066406 290.65625 81.441406 290.65625 78.800781 C 290.65625 76.148438 291.132812 73.503906 292.0625 70.941406 C 293 68.375 294.382812 66.050781 296.171875 64.027344 C 297.984375 62.011719 300.21875 60.363281 302.820312 59.117188 C 305.421875 57.867188 308.457031 57.234375 311.820312 57.234375 C 314.796875 57.234375 317.53125 57.742188 319.957031 58.757812 C 322.355469 59.753906 324.429688 61.050781 326.125 62.609375 C 327.816406 64.152344 329.15625 65.925781 330.089844 67.875 C 331.03125 69.835938 331.515625 71.785156 331.515625 73.660156 C 331.515625 75.855469 331.199219 77.488281 330.542969 78.640625 Z M 287.527344 61.707031 L 287.132812 62.929688 C 287.121094 63.035156 287.109375 63.148438 287.078125 63.257812 C 286.722656 64.441406 286.242188 66.128906 285.625 68.304688 C 285.011719 70.527344 284.273438 72.945312 283.441406 75.578125 C 282.59375 78.207031 281.671875 80.890625 280.652344 83.632812 C 279.640625 86.351562 278.574219 88.882812 277.472656 91.167969 C 276.355469 93.480469 275.1875 95.410156 274.011719 96.894531 C 272.628906 98.667969 271.167969 99.574219 269.664062 99.574219 C 267.300781 99.574219 265.222656 97.878906 263.476562 94.535156 C 262.839844 93.265625 262.195312 91.871094 261.519531 90.332031 C 260.839844 88.785156 260.179688 87.035156 259.5 85.050781 C 258.851562 83.261719 258.226562 81.449219 257.621094 79.640625 C 257.027344 77.832031 256.445312 76 255.875 74.148438 C 255.335938 72.085938 254.839844 70.375 254.359375 68.925781 C 253.886719 67.46875 253.46875 66.234375 253.117188 65.234375 C 252.621094 63.957031 252.382812 62.824219 252.382812 61.808594 C 252.382812 60.605469 252.6875 59.667969 253.292969 59.03125 C 253.722656 58.566406 254.5 58.023438 255.765625 58.023438 C 256.53125 58.023438 257.304688 58.28125 258.0625 58.789062 C 258.742188 59.246094 259.324219 59.816406 259.773438 60.492188 C 259.90625 60.632812 259.90625 60.640625 259.972656 60.824219 C 260.160156 61.296875 260.421875 62.148438 260.75 63.390625 C 261.058594 64.542969 261.421875 65.886719 261.863281 67.414062 L 263.257812 72.46875 C 263.71875 74.289062 264.246094 76.128906 264.816406 78 C 265.34375 79.84375 265.894531 81.628906 266.476562 83.394531 C 267.058594 85.136719 267.628906 86.703125 268.203125 88.089844 C 268.707031 89.335938 269.179688 90.378906 269.621094 91.1875 C 270.003906 90.453125 270.421875 89.507812 270.882812 88.351562 C 271.433594 87.015625 271.992188 85.484375 272.574219 83.75 C 273.167969 82 273.761719 80.183594 274.378906 78.296875 C 275.222656 75.925781 276.003906 73.507812 276.695312 71.070312 C 277.375 68.683594 277.957031 66.605469 278.441406 64.851562 L 279.242188 62.242188 C 279.472656 61.488281 279.648438 60.988281 279.738281 60.75 C 279.746094 60.71875 279.757812 60.691406 279.78125 60.660156 C 280.089844 59.695312 280.636719 58.871094 281.40625 58.203125 C 283.199219 56.667969 285.277344 56.660156 286.625 58.164062 C 287.265625 58.871094 287.59375 59.921875 287.59375 61.273438 C 287.59375 61.421875 287.570312 61.570312 287.527344 61.707031 Z M 244.472656 76.964844 C 244.371094 77.089844 244.25 77.199219 244.128906 77.28125 C 242.757812 78.691406 241.085938 79.414062 239.152344 79.414062 C 235.375 79.414062 233.460938 78.339844 233.460938 76.226562 C 233.460938 75.171875 233.703125 74.320312 234.175781 73.691406 C 234.625 73.113281 235.1875 72.691406 235.855469 72.421875 C 236.363281 72.21875 236.933594 72.050781 237.550781 71.921875 C 237.953125 71.839844 238.328125 71.714844 238.660156 71.546875 C 238.867188 71.4375 239.042969 71.28125 239.183594 71.050781 C 239.230469 70.988281 239.394531 70.695312 239.394531 69.835938 C 239.394531 69.167969 239.316406 68.53125 239.140625 67.898438 C 239 67.34375 238.746094 66.859375 238.386719 66.40625 C 238.054688 65.996094 237.59375 65.660156 237 65.394531 C 235.757812 64.84375 233.1875 64.683594 231.695312 66.09375 C 230.78125 66.945312 230 68.105469 229.375 69.542969 C 228.714844 71.070312 228.179688 72.839844 227.78125 74.796875 C 227.398438 76.726562 227.089844 78.773438 226.847656 81.050781 C 226.648438 83.214844 226.484375 85.335938 226.398438 87.421875 C 226.320312 89.519531 226.253906 91.398438 226.210938 93.066406 L 226 97.25 C 225.945312 98.40625 225.464844 99.363281 224.59375 100.015625 C 223.816406 100.601562 222.980469 100.894531 222.101562 100.894531 C 221.125 100.894531 220.246094 100.59375 219.484375 100 C 218.890625 99.53125 218.191406 98.660156 218.191406 97.113281 C 218.191406 96.175781 218.214844 95.113281 218.257812 93.925781 C 218.300781 92.78125 218.324219 91.359375 218.324219 89.671875 C 218.324219 86.761719 218.222656 82.882812 218.027344 78.132812 C 217.828125 73.398438 217.398438 67.351562 216.75 60.152344 C 216.742188 58.816406 217.125 57.871094 217.882812 57.210938 C 219.289062 56.023438 221.3125 56.050781 222.828125 57.085938 C 223.664062 57.636719 224.199219 58.449219 224.34375 59.417969 C 224.355469 59.488281 224.363281 59.753906 224.363281 59.824219 C 224.363281 60.246094 224.375 60.703125 224.398438 61.179688 C 224.410156 61.5 224.429688 61.839844 224.453125 62.203125 C 225.441406 61.074219 226.503906 60.144531 227.628906 59.425781 C 228.792969 58.699219 229.980469 58.164062 231.1875 57.84375 C 232.375 57.527344 233.503906 57.367188 234.539062 57.367188 C 236.878906 57.464844 238.820312 57.871094 240.394531 58.582031 C 241.988281 59.3125 243.285156 60.269531 244.25 61.433594 C 245.207031 62.59375 245.898438 63.933594 246.304688 65.417969 C 246.679688 66.832031 246.878906 68.316406 246.878906 69.835938 C 246.878906 72.519531 246.0625 74.917969 244.472656 76.964844 Z M 210.917969 78.640625 C 210.445312 79.464844 209.191406 80.769531 206.730469 80.523438 C 202.710938 80.527344 197.941406 80.609375 192.558594 80.734375 L 184.933594 80.996094 C 182.945312 81.070312 180.980469 81.183594 179.023438 81.335938 C 179.121094 82.574219 179.355469 83.785156 179.703125 84.9375 C 180.175781 86.441406 180.910156 87.730469 181.964844 88.882812 C 183.011719 90.023438 184.386719 90.929688 186.054688 91.585938 C 187.777344 92.265625 189.890625 92.613281 192.316406 92.613281 C 193.328125 92.613281 194.363281 92.453125 195.402344 92.140625 C 196.527344 91.808594 197.6875 91.355469 198.878906 90.769531 C 201.007812 89.609375 202.625 87.933594 203.777344 85.671875 C 204.53125 84.617188 205.457031 84.121094 206.523438 84.082031 C 207.371094 84.121094 208.324219 84.296875 209.082031 84.828125 C 209.863281 85.363281 210.398438 86.160156 210.664062 87.175781 C 210.9375 88.242188 210.707031 89.378906 209.960938 90.550781 C 209.929688 90.609375 209.882812 90.664062 209.839844 90.714844 C 209.058594 92.109375 208.046875 93.398438 206.839844 94.546875 C 205.597656 95.726562 204.183594 96.773438 202.625 97.648438 C 201.074219 98.515625 199.402344 99.191406 197.65625 99.652344 C 195.921875 100.125 194.121094 100.363281 192.316406 100.363281 C 188.699219 100.363281 185.507812 99.730469 182.835938 98.488281 C 180.164062 97.234375 177.914062 95.574219 176.15625 93.5625 C 174.375 91.53125 173.066406 89.1875 172.246094 86.601562 C 171.441406 84.09375 171.035156 81.464844 171.035156 78.800781 C 171.035156 76.113281 171.511719 73.464844 172.441406 70.9375 C 173.367188 68.375 174.75 66.046875 176.5625 64.019531 C 178.363281 62.015625 180.59375 60.367188 183.1875 59.117188 C 185.800781 57.867188 188.832031 57.234375 192.1875 57.234375 C 195.160156 57.234375 197.898438 57.742188 200.328125 58.757812 C 202.730469 59.753906 204.808594 61.054688 206.5 62.609375 C 208.203125 64.175781 209.542969 65.945312 210.46875 67.875 C 211.410156 69.835938 211.894531 71.785156 211.894531 73.660156 C 211.894531 75.855469 211.578125 77.488281 210.917969 78.640625 Z M 165.75 93.046875 C 165.136719 94.414062 164.199219 95.679688 162.960938 96.800781 C 161.730469 97.917969 160.203125 98.8125 158.421875 99.484375 C 156.644531 100.152344 154.578125 100.496094 152.269531 100.496094 C 150.027344 100.496094 147.90625 100.09375 145.972656 99.300781 C 144.074219 98.53125 142.371094 97.527344 140.910156 96.320312 C 139.40625 95.089844 138.21875 93.6875 137.375 92.160156 C 136.496094 90.578125 136.042969 88.960938 136.042969 87.363281 C 136.042969 86.0625 136.308594 85.191406 136.878906 84.617188 C 137.425781 84.085938 138.273438 83.785156 139.625 83.625 C 141.152344 83.386719 142.449219 84.09375 143.261719 85.414062 C 143.808594 86.296875 144.296875 87.214844 144.679688 88.136719 C 144.703125 88.175781 144.710938 88.21875 144.722656 88.261719 C 145.019531 88.796875 145.324219 89.332031 145.644531 89.863281 C 145.964844 90.414062 146.378906 90.886719 146.886719 91.320312 C 147.402344 91.769531 148.0625 92.132812 148.875 92.417969 C 150.511719 93.019531 153.863281 93.039062 155.652344 92.371094 C 156.53125 92.039062 157.234375 91.644531 157.753906 91.1875 C 158.246094 90.75 158.597656 90.300781 158.796875 89.867188 C 159.039062 89.335938 159.09375 89 159.09375 88.8125 C 159.09375 87.4375 158.707031 86.40625 157.917969 85.644531 C 156.960938 84.742188 155.742188 83.96875 154.261719 83.359375 C 152.65625 82.695312 150.976562 82.109375 149.105469 81.566406 C 147.195312 81.015625 145.324219 80.273438 143.558594 79.359375 C 141.746094 78.414062 140.21875 77.183594 139.023438 75.695312 C 137.753906 74.121094 137.109375 72.015625 137.109375 69.445312 C 137.109375 68.46875 137.285156 67.289062 137.636719 65.929688 C 138.011719 64.480469 138.722656 63.066406 139.769531 61.730469 C 140.8125 60.390625 142.273438 59.230469 144.128906 58.277344 C 145.964844 57.324219 148.359375 56.84375 151.214844 56.84375 C 153.457031 56.84375 155.535156 57.167969 157.367188 57.804688 C 159.238281 58.464844 160.839844 59.390625 162.136719 60.558594 C 163.445312 61.769531 164.457031 63.195312 165.148438 64.808594 C 165.828125 66.429688 166.179688 68.210938 166.179688 70.109375 C 166.179688 72.433594 164.738281 73.816406 162.335938 73.816406 C 161.234375 73.816406 160.367188 73.539062 159.773438 72.976562 C 159.226562 72.46875 158.851562 71.722656 158.597656 70.6875 C 158.589844 70.613281 158.574219 70.535156 158.566406 70.453125 L 158.464844 69.207031 C 158.421875 68.667969 158.179688 68.035156 157.730469 67.332031 C 157.28125 66.628906 156.523438 65.960938 155.476562 65.363281 C 154.445312 64.765625 152.863281 64.460938 150.753906 64.460938 C 149.324219 64.460938 148.226562 64.671875 147.472656 65.082031 C 146.699219 65.5 146.105469 65.984375 145.699219 66.535156 C 145.28125 67.085938 145.03125 67.59375 144.921875 68.101562 C 144.757812 68.851562 144.722656 69.242188 144.722656 69.445312 C 144.722656 70.402344 145.0625 71.109375 145.777344 71.652344 C 146.753906 72.390625 148.019531 73.054688 149.511719 73.628906 C 151.136719 74.257812 152.875 74.863281 154.722656 75.445312 C 156.699219 76.066406 158.574219 76.890625 160.3125 77.90625 C 162.136719 78.984375 163.652344 80.378906 164.828125 82.035156 C 166.082031 83.789062 166.707031 86.070312 166.707031 88.8125 C 166.707031 90.242188 166.390625 91.667969 165.75 93.046875 Z M 128.871094 78.640625 C 128.394531 79.464844 127.144531 80.769531 124.683594 80.523438 C 120.664062 80.527344 115.90625 80.609375 110.511719 80.734375 L 102.886719 80.996094 C 100.910156 81.070312 98.929688 81.183594 96.976562 81.335938 C 97.074219 82.574219 97.304688 83.785156 97.652344 84.9375 C 98.128906 86.441406 98.863281 87.730469 99.917969 88.882812 C 100.960938 90.023438 102.335938 90.929688 104.007812 91.585938 C 105.730469 92.265625 107.839844 92.613281 110.269531 92.613281 C 111.28125 92.613281 112.3125 92.453125 113.355469 92.140625 C 114.476562 91.816406 115.640625 91.355469 116.839844 90.769531 C 118.957031 89.609375 120.574219 87.933594 121.726562 85.671875 C 122.507812 84.589844 123.421875 84.121094 124.488281 84.082031 C 124.539062 84.082031 124.59375 84.082031 124.636719 84.082031 C 125.527344 84.082031 126.339844 84.332031 127.046875 84.835938 C 127.8125 85.363281 128.351562 86.160156 128.617188 87.175781 C 128.890625 88.242188 128.660156 89.378906 127.914062 90.550781 C 127.878906 90.609375 127.835938 90.664062 127.789062 90.714844 C 127.011719 92.101562 126.011719 93.386719 124.816406 94.539062 C 123.550781 95.734375 122.125 96.78125 120.574219 97.648438 C 119.015625 98.519531 117.34375 99.199219 115.605469 99.660156 C 113.875 100.125 112.070312 100.363281 110.269531 100.363281 C 106.640625 100.363281 103.457031 99.730469 100.796875 98.488281 C 98.117188 97.234375 95.867188 95.582031 94.105469 93.5625 C 92.335938 91.515625 91.03125 89.183594 90.207031 86.601562 C 89.390625 84.066406 88.988281 81.441406 88.988281 78.800781 C 88.988281 76.148438 89.460938 73.503906 90.394531 70.941406 C 91.328125 68.375 92.710938 66.050781 94.503906 64.027344 C 96.3125 62.011719 98.546875 60.363281 101.148438 59.117188 C 103.753906 57.867188 106.773438 57.234375 110.136719 57.234375 C 113.113281 57.234375 115.863281 57.742188 118.289062 58.757812 C 120.695312 59.761719 122.773438 61.058594 124.453125 62.609375 C 126.144531 64.152344 127.484375 65.925781 128.417969 67.875 C 129.363281 69.835938 129.847656 71.785156 129.847656 73.660156 C 129.847656 75.855469 129.527344 77.488281 128.871094 78.640625 Z M 70.75 83.9375 C 74.890625 86.859375 79.078125 89.757812 83.339844 92.648438 C 84.546875 93.914062 84.648438 94.945312 84.570312 95.628906 C 84.472656 96.453125 84.164062 97.203125 83.648438 97.855469 C 83.089844 98.546875 82.339844 99.007812 81.484375 99.210938 C 80.515625 99.445312 79.375 99.085938 76.265625 96.867188 L 53.9375 80.890625 C 53.808594 86.296875 53.753906 90.164062 53.796875 92.414062 C 53.863281 96.320312 53.730469 97.152344 53.6875 97.425781 C 53.523438 98.429688 53.039062 99.242188 52.304688 99.804688 C 51.578125 100.355469 50.777344 100.628906 49.898438 100.628906 C 48.953125 100.628906 48.128906 100.339844 47.445312 99.777344 C 46.691406 99.132812 46.316406 98.199219 46.316406 96.984375 C 46.449219 94.15625 46.554688 91.480469 46.644531 88.898438 C 46.734375 86.292969 46.839844 83.867188 46.976562 81.613281 C 47.105469 79.425781 47.074219 74.679688 46.875 67.507812 C 46.722656 61.703125 46.511719 57.410156 46.25 54.691406 C 45.535156 54.636719 44.808594 54.292969 44.160156 53.648438 C 42.863281 52.1875 42.910156 50.542969 44.203125 49.175781 L 45.863281 47.730469 C 45.886719 47.464844 45.875 47.3125 45.863281 47.226562 C 45.808594 46.78125 45.789062 46.5 45.789062 46.390625 C 45.601562 44.085938 46.734375 42.5 48.886719 42.164062 C 48.90625 42.164062 48.917969 42.164062 48.941406 42.164062 C 51.390625 42.164062 52.226562 43.457031 52.523438 44.230469 L 52.589844 44.636719 C 54.257812 44.089844 55.984375 43.652344 57.742188 43.324219 C 63.117188 42.320312 68.121094 42.492188 72.683594 43.75 C 75.34375 44.480469 77.683594 45.621094 79.648438 47.152344 C 81.660156 48.703125 83.253906 50.664062 84.40625 52.972656 C 85.550781 55.320312 86.085938 58.078125 85.988281 61.191406 C 85.902344 65.363281 84.449219 68.804688 81.660156 71.394531 C 80.472656 72.542969 79.035156 73.609375 77.417969 74.542969 C 75.824219 75.476562 74.121094 76.210938 72.34375 76.726562 C 70.585938 77.1875 68.75 77.539062 66.839844 77.792969 C 65.082031 78.011719 63.675781 78.144531 62.414062 78.078125 Z M 314.207031 23.175781 L 60.519531 23.175781 C 42.558594 23.175781 28.003906 37.742188 28.003906 55.714844 L 28.003906 117.785156 C 28.003906 135.75 42.558594 150.316406 60.519531 150.316406 L 213.34375 150.316406 C 213.828125 141.449219 214.460938 133.496094 215.378906 127.425781 C 218.011719 109.976562 229.945312 97.316406 243.734375 97.316406 C 255.921875 97.316406 268.210938 107.367188 268.210938 129.820312 C 268.210938 135.949219 268.363281 143.054688 268.589844 150.316406 L 314.207031 150.316406 C 332.164062 150.316406 346.722656 135.75 346.722656 117.785156 L 346.722656 55.714844 C 346.722656 37.742188 332.164062 23.175781 314.207031 23.175781 " fill-opacity="1" fill-rule="nonzero"/></g><path fill="#ffffff" d="M 316.265625 231.703125 C 313.585938 230.996094 311.421875 229.023438 310.480469 226.417969 C 307.488281 218.1875 300.511719 213.652344 290.84375 213.652344 C 288.175781 213.652344 285.429688 212.390625 283.847656 210.246094 C 279.847656 204.863281 273.835938 202.023438 266.476562 202.023438 C 265.246094 202.023438 264.09375 202.09375 263.046875 202.214844 C 260.765625 202.445312 258.445312 201.761719 256.664062 200.269531 C 254.898438 198.773438 253.820312 196.613281 253.6875 194.300781 C 252.984375 181.8125 251.335938 150.53125 251.335938 129.820312 C 251.335938 120.332031 248.351562 114.203125 243.734375 114.203125 C 239.164062 114.203125 233.550781 120.097656 232.058594 129.953125 C 230.132812 142.664062 229.496094 165.199219 228.882812 186.996094 C 228.332031 206.027344 227.660156 229.425781 225.945312 242.25 C 225.453125 245.964844 222.574219 248.90625 218.871094 249.480469 C 215.222656 250.023438 211.542969 248.117188 209.953125 244.722656 C 202.335938 228.511719 190.207031 221.257812 181.558594 221.257812 C 178.289062 221.257812 175.707031 222.394531 174.484375 224.371094 C 173.738281 225.570312 172.398438 229.027344 175.671875 235.597656 C 187.273438 258.792969 196.136719 295.605469 197.335938 300.703125 L 213.566406 324.324219 C 214.363281 325.496094 214.859375 326.847656 215.003906 328.261719 L 217.386719 351.917969 L 305.261719 351.917969 C 304.917969 343.367188 305.722656 333.046875 308.542969 326.441406 L 310.125 322.675781 C 313.496094 314.542969 328.144531 259.613281 328.449219 250.304688 C 328.890625 237.011719 321.003906 232.945312 316.265625 231.703125 " fill-opacity="1" fill-rule="nonzero"/></svg>